<mxfile host="app.diagrams.net" modified="2024-07-04T15:10:47.919Z" agent="Mozilla/5.0 (X11; Linux x86_64) AppleWebKit/537.36 (KHTML, like Gecko) Chrome/126.0.0.0 Safari/537.36" etag="bTaLu_vNudR9MhYVa3BC" version="24.6.4" type="device">
  <diagram name="Page-1" id="Q07v23xAye6RxvADJUx6">
    <mxGraphModel dx="2074" dy="1146" grid="1" gridSize="10" guides="1" tooltips="1" connect="1" arrows="1" fold="1" page="1" pageScale="1" pageWidth="1169" pageHeight="827" math="0" shadow="0">
      <root>
        <mxCell id="0" />
        <mxCell id="1" parent="0" />
        <mxCell id="3bambesY4lkLLAI-RDyX-18" value="&lt;b&gt;Operator&lt;/b&gt; - direct access to local network&lt;br&gt;(Have access to starter-app-python app)" style="text;html=1;strokeColor=#6c8ebf;fillColor=#dae8fc;align=center;verticalAlign=middle;whiteSpace=wrap;rounded=0;" parent="1" vertex="1">
          <mxGeometry x="610" y="735" width="364.7" height="70" as="geometry" />
        </mxCell>
        <mxCell id="3bambesY4lkLLAI-RDyX-14" value="&lt;div&gt;&lt;div align=&quot;center&quot;&gt;&lt;b&gt;Networking&lt;/b&gt;&lt;br&gt;&lt;/div&gt;&lt;br&gt;&lt;div align=&quot;left&quot;&gt;Router is connected to the Internet and provide local network.|&lt;br&gt;&lt;br&gt;Services:&lt;/div&gt;&lt;div align=&quot;left&quot;&gt;&amp;nbsp;- DNS&lt;/div&gt;&lt;div align=&quot;left&quot;&gt;&amp;nbsp;- optional DHCP - robots using static ip&lt;br&gt;&lt;/div&gt;&lt;/div&gt;" style="text;html=1;strokeColor=#9673a6;fillColor=#e1d5e7;align=center;verticalAlign=top;whiteSpace=wrap;rounded=0;horizontal=1;" parent="1" vertex="1">
          <mxGeometry x="460" y="120" width="230" height="360" as="geometry" />
        </mxCell>
        <mxCell id="Y7x5n66CxU2vdpoZQT9u-1" value="&lt;div align=&quot;center&quot;&gt;&lt;font style=&quot;font-size: 14px;&quot;&gt;&lt;b&gt;&lt;br&gt;&lt;/b&gt;&lt;/font&gt;&lt;/div&gt;&lt;div style=&quot;font-size: 16px;&quot; align=&quot;center&quot;&gt;&lt;font style=&quot;font-size: 16px;&quot;&gt;&lt;b&gt;DataCenter&lt;/b&gt;&lt;/font&gt;&lt;/div&gt;&lt;div style=&quot;font-size: 14px;&quot; align=&quot;center&quot;&gt;&lt;font style=&quot;font-size: 14px;&quot;&gt;&lt;span style=&quot;&quot;&gt;( OpenShift Cluster )&lt;/span&gt;&lt;font style=&quot;font-size: 14px;&quot;&gt;&lt;br&gt;&lt;/font&gt;&lt;/font&gt;&lt;/div&gt;" style="rounded=0;whiteSpace=wrap;html=1;align=center;verticalAlign=top;" parent="1" vertex="1">
          <mxGeometry x="85" y="110" width="275" height="505" as="geometry" />
        </mxCell>
        <mxCell id="Y7x5n66CxU2vdpoZQT9u-2" value="" style="sketch=0;html=1;aspect=fixed;strokeColor=none;shadow=0;fillColor=#3B8DF1;verticalAlign=top;labelPosition=center;verticalLabelPosition=bottom;shape=mxgraph.gcp2.globe_world" parent="1" vertex="1">
          <mxGeometry x="20" y="30" width="100" height="95" as="geometry" />
        </mxCell>
        <mxCell id="Y7x5n66CxU2vdpoZQT9u-3" value="" style="endArrow=none;html=1;rounded=0;strokeWidth=5;" parent="1" edge="1">
          <mxGeometry width="50" height="50" relative="1" as="geometry">
            <mxPoint x="440" y="640" as="sourcePoint" />
            <mxPoint x="440" y="80" as="targetPoint" />
          </mxGeometry>
        </mxCell>
        <mxCell id="Y7x5n66CxU2vdpoZQT9u-6" value="&lt;div align=&quot;center&quot;&gt;&lt;b&gt;&lt;br&gt;&lt;/b&gt;&lt;/div&gt;&lt;div style=&quot;font-size: 16px;&quot; align=&quot;center&quot;&gt;&lt;b&gt;Edge gateway&lt;/b&gt;&lt;br&gt;&lt;font style=&quot;font-size: 13px;&quot;&gt;( Single Node or OpenShift Local )&lt;/font&gt;&lt;br&gt;&lt;/div&gt;" style="rounded=0;whiteSpace=wrap;html=1;verticalAlign=top;align=center;" parent="1" vertex="1">
          <mxGeometry x="710.3" y="100" width="500" height="340" as="geometry" />
        </mxCell>
        <mxCell id="Y7x5n66CxU2vdpoZQT9u-5" value="" style="shape=link;html=1;rounded=0;entryX=0.008;entryY=0.581;entryDx=0;entryDy=0;entryPerimeter=0;" parent="1" source="3bambesY4lkLLAI-RDyX-1" target="Y7x5n66CxU2vdpoZQT9u-8" edge="1">
          <mxGeometry width="100" relative="1" as="geometry">
            <mxPoint x="510" y="400" as="sourcePoint" />
            <mxPoint x="610" y="400" as="targetPoint" />
          </mxGeometry>
        </mxCell>
        <mxCell id="4Dibi0irPK0UU5uyRhIs-1" value="&amp;nbsp;Skupper tunnel " style="edgeLabel;html=1;align=center;verticalAlign=middle;resizable=0;points=[];fontSize=14;" parent="Y7x5n66CxU2vdpoZQT9u-5" vertex="1" connectable="0">
          <mxGeometry x="0.2024" y="-4" relative="1" as="geometry">
            <mxPoint as="offset" />
          </mxGeometry>
        </mxCell>
        <mxCell id="Y7x5n66CxU2vdpoZQT9u-7" value="Namespace&lt;br&gt;skupper-public" style="rounded=0;whiteSpace=wrap;html=1;fillColor=#ffe6cc;strokeColor=#d79b00;" parent="1" vertex="1">
          <mxGeometry x="230" y="337.5" width="120" height="50" as="geometry" />
        </mxCell>
        <mxCell id="Y7x5n66CxU2vdpoZQT9u-8" value="&lt;b&gt;Namespace&lt;br&gt;&lt;/b&gt;skupper-private" style="rounded=0;whiteSpace=wrap;html=1;align=center;verticalAlign=top;" parent="1" vertex="1">
          <mxGeometry x="770.3" y="250" width="290" height="145" as="geometry" />
        </mxCell>
        <mxCell id="Y7x5n66CxU2vdpoZQT9u-10" value="1" style="rounded=1;whiteSpace=wrap;html=1;" parent="1" vertex="1">
          <mxGeometry x="700" y="510" width="750" height="210" as="geometry" />
        </mxCell>
        <mxCell id="Y7x5n66CxU2vdpoZQT9u-9" value="" style="shape=image;html=1;verticalAlign=top;verticalLabelPosition=bottom;labelBackgroundColor=#ffffff;imageAspect=0;aspect=fixed;image=https://cdn1.iconfinder.com/data/icons/unicons-line-vol-5/24/robot-128.png" parent="1" vertex="1">
          <mxGeometry x="710" y="520" width="69" height="69" as="geometry" />
        </mxCell>
        <mxCell id="Y7x5n66CxU2vdpoZQT9u-12" value="&lt;b&gt;hubcontroller-rest&lt;/b&gt;&lt;br&gt;(Infrastructur*)" style="rounded=0;whiteSpace=wrap;html=1;fillColor=#f8cecc;strokeColor=#b85450;" parent="1" vertex="1">
          <mxGeometry x="865.3" y="300" width="155" height="60" as="geometry" />
        </mxCell>
        <mxCell id="Y7x5n66CxU2vdpoZQT9u-14" value="&lt;div&gt;&lt;br&gt;&lt;/div&gt;&lt;div&gt;&lt;b&gt;edgecontroller&lt;/b&gt;&lt;br&gt;&lt;/div&gt;(Infrastructur*)&lt;div&gt;Flask: GoPiGo3 &lt;br&gt;&lt;/div&gt;&lt;div&gt;system process&lt;/div&gt;&lt;div&gt;:5000&lt;br&gt;&lt;/div&gt;" style="rounded=0;whiteSpace=wrap;html=1;fillColor=#f8cecc;strokeColor=#b85450;" parent="1" vertex="1">
          <mxGeometry x="720" y="600" width="120" height="90" as="geometry" />
        </mxCell>
        <mxCell id="Y7x5n66CxU2vdpoZQT9u-18" value="" style="shape=flexArrow;endArrow=classic;html=1;rounded=0;entryX=0.558;entryY=0;entryDx=0;entryDy=0;fillColor=#f5f5f5;strokeColor=#666666;entryPerimeter=0;" parent="1" source="Y7x5n66CxU2vdpoZQT9u-12" target="Y7x5n66CxU2vdpoZQT9u-14" edge="1">
          <mxGeometry width="50" height="50" relative="1" as="geometry">
            <mxPoint x="790" y="600" as="sourcePoint" />
            <mxPoint x="840" y="550" as="targetPoint" />
          </mxGeometry>
        </mxCell>
        <mxCell id="4Dibi0irPK0UU5uyRhIs-32" value="HTTP Requests" style="edgeLabel;html=1;align=center;verticalAlign=middle;resizable=0;points=[];" parent="Y7x5n66CxU2vdpoZQT9u-18" vertex="1" connectable="0">
          <mxGeometry x="-0.234" y="-4" relative="1" as="geometry">
            <mxPoint as="offset" />
          </mxGeometry>
        </mxCell>
        <mxCell id="4Dibi0irPK0UU5uyRhIs-9" value="MicroShift" style="rounded=0;whiteSpace=wrap;html=1;verticalAlign=top;" parent="1" vertex="1">
          <mxGeometry x="1020" y="540" width="400" height="150" as="geometry" />
        </mxCell>
        <mxCell id="4Dibi0irPK0UU5uyRhIs-18" style="edgeStyle=orthogonalEdgeStyle;rounded=0;orthogonalLoop=1;jettySize=auto;html=1;exitX=1;exitY=0.5;exitDx=0;exitDy=0;" parent="1" source="Y7x5n66CxU2vdpoZQT9u-15" target="aIdql1TslKtJQBLzpVFt-9" edge="1">
          <mxGeometry relative="1" as="geometry">
            <mxPoint x="1213" y="590.5" as="targetPoint" />
          </mxGeometry>
        </mxCell>
        <mxCell id="4Dibi0irPK0UU5uyRhIs-19" value="REST API" style="edgeLabel;html=1;align=center;verticalAlign=middle;resizable=0;points=[];" parent="4Dibi0irPK0UU5uyRhIs-18" vertex="1" connectable="0">
          <mxGeometry x="-0.2167" y="-3" relative="1" as="geometry">
            <mxPoint y="1" as="offset" />
          </mxGeometry>
        </mxCell>
        <mxCell id="4Dibi0irPK0UU5uyRhIs-21" value="API" style="edgeStyle=orthogonalEdgeStyle;rounded=0;orthogonalLoop=1;jettySize=auto;html=1;exitX=0;exitY=0.5;exitDx=0;exitDy=0;entryX=1;entryY=0.5;entryDx=0;entryDy=0;endArrow=classic;endFill=1;startArrow=none;startFill=0;" parent="1" source="Y7x5n66CxU2vdpoZQT9u-15" target="Y7x5n66CxU2vdpoZQT9u-14" edge="1">
          <mxGeometry relative="1" as="geometry" />
        </mxCell>
        <mxCell id="4Dibi0irPK0UU5uyRhIs-23" style="edgeStyle=orthogonalEdgeStyle;rounded=0;orthogonalLoop=1;jettySize=auto;html=1;exitX=0;exitY=0.25;exitDx=0;exitDy=0;entryX=0.993;entryY=0.631;entryDx=0;entryDy=0;entryPerimeter=0;" parent="1" source="Y7x5n66CxU2vdpoZQT9u-15" target="4Dibi0irPK0UU5uyRhIs-22" edge="1">
          <mxGeometry relative="1" as="geometry">
            <Array as="points">
              <mxPoint x="1000" y="603" />
              <mxPoint x="1000" y="571" />
            </Array>
          </mxGeometry>
        </mxCell>
        <mxCell id="4Dibi0irPK0UU5uyRhIs-24" value="API" style="edgeLabel;html=1;align=center;verticalAlign=middle;resizable=0;points=[];" parent="4Dibi0irPK0UU5uyRhIs-23" vertex="1" connectable="0">
          <mxGeometry x="0.1703" y="2" relative="1" as="geometry">
            <mxPoint as="offset" />
          </mxGeometry>
        </mxCell>
        <mxCell id="4Dibi0irPK0UU5uyRhIs-7" value="&lt;br&gt;Dev Spaces" style="rounded=0;whiteSpace=wrap;html=1;verticalAlign=top;" parent="1" vertex="1">
          <mxGeometry x="110" y="430" width="220" height="140" as="geometry" />
        </mxCell>
        <mxCell id="4Dibi0irPK0UU5uyRhIs-2" value="&lt;div&gt;&lt;b&gt;starter-app-python&lt;/b&gt;&lt;/div&gt;(Development!)" style="rounded=0;whiteSpace=wrap;html=1;fillColor=#d5e8d4;strokeColor=#82b366;" parent="1" vertex="1">
          <mxGeometry x="160" y="490" width="120" height="60" as="geometry" />
        </mxCell>
        <mxCell id="4Dibi0irPK0UU5uyRhIs-11" value="Gitea" style="rounded=0;whiteSpace=wrap;html=1;fillColor=#ffe6cc;strokeColor=#d79b00;" parent="1" vertex="1">
          <mxGeometry x="110" y="190" width="160" height="20" as="geometry" />
        </mxCell>
        <mxCell id="4Dibi0irPK0UU5uyRhIs-12" value="&lt;div&gt;OpenShift&amp;nbsp;&lt;span style=&quot;background-color: initial;&quot;&gt;Pipelines&lt;/span&gt;&lt;/div&gt;" style="rounded=0;whiteSpace=wrap;html=1;fillColor=#ffe6cc;strokeColor=#d79b00;" parent="1" vertex="1">
          <mxGeometry x="110" y="220" width="160" height="20" as="geometry" />
        </mxCell>
        <mxCell id="4Dibi0irPK0UU5uyRhIs-13" value="&lt;div&gt;OpenShift&amp;nbsp;&lt;span style=&quot;background-color: initial;&quot;&gt;GitOps&lt;/span&gt;&lt;/div&gt;" style="rounded=0;whiteSpace=wrap;html=1;fillColor=#ffe6cc;strokeColor=#d79b00;" parent="1" vertex="1">
          <mxGeometry x="1050" y="190" width="130.3" height="40" as="geometry" />
        </mxCell>
        <mxCell id="4Dibi0irPK0UU5uyRhIs-14" value="&lt;div&gt;Container&amp;nbsp;&lt;span style=&quot;background-color: initial;&quot;&gt;Registry&lt;/span&gt;&lt;/div&gt;" style="rounded=0;whiteSpace=wrap;html=1;fillColor=#ffe6cc;strokeColor=#d79b00;" parent="1" vertex="1">
          <mxGeometry x="110" y="250" width="160" height="20" as="geometry" />
        </mxCell>
        <mxCell id="4Dibi0irPK0UU5uyRhIs-15" value="" style="image;sketch=0;aspect=fixed;html=1;points=[];align=center;fontSize=12;image=img/lib/mscae/Data_Factory.svg;" parent="1" vertex="1">
          <mxGeometry x="1290" y="20" width="90" height="90" as="geometry" />
        </mxCell>
        <mxCell id="4Dibi0irPK0UU5uyRhIs-22" value="&lt;div&gt;CAM API&lt;/div&gt;&lt;div&gt;(Infrastructur*)&lt;br&gt;&lt;/div&gt;" style="rounded=0;whiteSpace=wrap;html=1;fillColor=#f8cecc;strokeColor=#b85450;" parent="1" vertex="1">
          <mxGeometry x="874.7" y="530" width="100" height="65" as="geometry" />
        </mxCell>
        <mxCell id="4Dibi0irPK0UU5uyRhIs-26" value="Applications managed by participants" style="rounded=0;whiteSpace=wrap;html=1;fillColor=#d5e8d4;strokeColor=#82b366;" parent="1" vertex="1">
          <mxGeometry x="60" y="740" width="120" height="60" as="geometry" />
        </mxCell>
        <mxCell id="4Dibi0irPK0UU5uyRhIs-28" value="* Infrastructur items managed by Red Hat only - not part of the workshop it self!" style="rounded=0;whiteSpace=wrap;html=1;fillColor=#f8cecc;strokeColor=#b85450;" parent="1" vertex="1">
          <mxGeometry x="190" y="740" width="210" height="60" as="geometry" />
        </mxCell>
        <mxCell id="4Dibi0irPK0UU5uyRhIs-29" value="Used by participants but not managed" style="rounded=0;whiteSpace=wrap;html=1;fillColor=#ffe6cc;strokeColor=#d79b00;" parent="1" vertex="1">
          <mxGeometry x="410" y="740" width="120" height="60" as="geometry" />
        </mxCell>
        <mxCell id="3bambesY4lkLLAI-RDyX-2" value="" style="html=1;verticalLabelPosition=bottom;align=center;labelBackgroundColor=#ffffff;verticalAlign=top;strokeWidth=2;strokeColor=#0080F0;shadow=0;dashed=0;shape=mxgraph.ios7.icons.wifi;pointerEvents=1" parent="1" vertex="1">
          <mxGeometry x="680.5999999999999" y="604" width="29.7" height="21" as="geometry" />
        </mxCell>
        <mxCell id="3bambesY4lkLLAI-RDyX-6" value="" style="shape=link;html=1;rounded=0;entryX=0.008;entryY=0.581;entryDx=0;entryDy=0;entryPerimeter=0;" parent="1" source="Y7x5n66CxU2vdpoZQT9u-7" target="3bambesY4lkLLAI-RDyX-1" edge="1">
          <mxGeometry width="100" relative="1" as="geometry">
            <mxPoint x="350" y="336" as="sourcePoint" />
            <mxPoint x="682" y="344" as="targetPoint" />
          </mxGeometry>
        </mxCell>
        <mxCell id="3bambesY4lkLLAI-RDyX-1" value="" style="image;html=1;image=img/lib/clip_art/networking/Wireless_Router_128x128.png" parent="1" vertex="1">
          <mxGeometry x="480" y="292.5" width="80" height="80" as="geometry" />
        </mxCell>
        <mxCell id="3bambesY4lkLLAI-RDyX-8" value="" style="endArrow=none;dashed=1;html=1;dashPattern=1 3;strokeWidth=2;rounded=0;exitX=0.047;exitY=0.476;exitDx=0;exitDy=0;exitPerimeter=0;entryX=0.5;entryY=1;entryDx=0;entryDy=0;fillColor=#e1d5e7;strokeColor=#9673a6;" parent="1" source="3bambesY4lkLLAI-RDyX-2" target="3bambesY4lkLLAI-RDyX-1" edge="1">
          <mxGeometry width="50" height="50" relative="1" as="geometry">
            <mxPoint x="560" y="490" as="sourcePoint" />
            <mxPoint x="610" y="440" as="targetPoint" />
          </mxGeometry>
        </mxCell>
        <mxCell id="3bambesY4lkLLAI-RDyX-9" value="WiFi" style="edgeLabel;html=1;align=center;verticalAlign=middle;resizable=0;points=[];" parent="3bambesY4lkLLAI-RDyX-8" vertex="1" connectable="0">
          <mxGeometry x="0.2094" y="4" relative="1" as="geometry">
            <mxPoint as="offset" />
          </mxGeometry>
        </mxCell>
        <mxCell id="3bambesY4lkLLAI-RDyX-10" value="Cable" style="endArrow=none;html=1;rounded=0;entryX=0;entryY=0.5;entryDx=0;entryDy=0;exitX=1;exitY=0.25;exitDx=0;exitDy=0;fillColor=#e1d5e7;strokeColor=#9673a6;" parent="1" source="3bambesY4lkLLAI-RDyX-1" target="Y7x5n66CxU2vdpoZQT9u-6" edge="1">
          <mxGeometry width="50" height="50" relative="1" as="geometry">
            <mxPoint x="560" y="250" as="sourcePoint" />
            <mxPoint x="610" y="200" as="targetPoint" />
          </mxGeometry>
        </mxCell>
        <mxCell id="3bambesY4lkLLAI-RDyX-15" value="" style="sketch=0;aspect=fixed;pointerEvents=1;shadow=0;dashed=0;html=1;strokeColor=none;labelPosition=center;verticalLabelPosition=bottom;verticalAlign=top;align=center;fillColor=#00188D;shape=mxgraph.azure.laptop" parent="1" vertex="1">
          <mxGeometry x="620" y="755" width="50" height="30" as="geometry" />
        </mxCell>
        <mxCell id="3bambesY4lkLLAI-RDyX-16" value="" style="endArrow=none;dashed=1;html=1;dashPattern=1 3;strokeWidth=2;rounded=0;exitX=0.5;exitY=0;exitDx=0;exitDy=0;exitPerimeter=0;entryX=0.25;entryY=1;entryDx=0;entryDy=0;fillColor=#e1d5e7;strokeColor=#9673a6;" parent="1" source="3bambesY4lkLLAI-RDyX-15" target="3bambesY4lkLLAI-RDyX-1" edge="1">
          <mxGeometry width="50" height="50" relative="1" as="geometry">
            <mxPoint x="692" y="624" as="sourcePoint" />
            <mxPoint x="530" y="383" as="targetPoint" />
          </mxGeometry>
        </mxCell>
        <mxCell id="3bambesY4lkLLAI-RDyX-17" value="WiFi" style="edgeLabel;html=1;align=center;verticalAlign=middle;resizable=0;points=[];" parent="3bambesY4lkLLAI-RDyX-16" vertex="1" connectable="0">
          <mxGeometry x="0.2094" y="4" relative="1" as="geometry">
            <mxPoint as="offset" />
          </mxGeometry>
        </mxCell>
        <mxCell id="aIdql1TslKtJQBLzpVFt-4" value="&lt;div&gt;OpenShift AI&lt;/div&gt;" style="rounded=0;whiteSpace=wrap;html=1;fillColor=#ffe6cc;strokeColor=#d79b00;" vertex="1" parent="1">
          <mxGeometry x="110" y="280" width="160" height="20" as="geometry" />
        </mxCell>
        <mxCell id="aIdql1TslKtJQBLzpVFt-5" value="&lt;b&gt;Namespace&amp;nbsp;&lt;/b&gt;robot-app" style="rounded=0;whiteSpace=wrap;html=1;align=left;verticalAlign=top;fillColor=none;" vertex="1" parent="1">
          <mxGeometry x="1044" y="571" width="150" height="110" as="geometry" />
        </mxCell>
        <mxCell id="Y7x5n66CxU2vdpoZQT9u-15" value="&lt;div&gt;&lt;b&gt;starter-app-python&lt;/b&gt;&lt;/div&gt;&lt;div&gt;(Production / Final)&lt;br&gt;&lt;/div&gt;" style="rounded=0;whiteSpace=wrap;html=1;fillColor=#d5e8d4;strokeColor=#82b366;" parent="1" vertex="1">
          <mxGeometry x="1054.3" y="603" width="120" height="65" as="geometry" />
        </mxCell>
        <mxCell id="aIdql1TslKtJQBLzpVFt-8" value="&lt;b&gt;Namespace &lt;/b&gt;triton" style="rounded=0;whiteSpace=wrap;html=1;align=left;verticalAlign=top;fillColor=none;" vertex="1" parent="1">
          <mxGeometry x="1255" y="569.5" width="150" height="110" as="geometry" />
        </mxCell>
        <mxCell id="aIdql1TslKtJQBLzpVFt-9" value="&lt;div&gt;&lt;span style=&quot;background-color: initial;&quot;&gt;&lt;b&gt;triton server &amp;amp; mode&amp;nbsp;&lt;/b&gt;&lt;/span&gt;&lt;br&gt;&lt;/div&gt;" style="rounded=0;whiteSpace=wrap;html=1;fillColor=#d5e8d4;strokeColor=#82b366;" vertex="1" parent="1">
          <mxGeometry x="1270" y="605" width="120" height="65" as="geometry" />
        </mxCell>
      </root>
    </mxGraphModel>
  </diagram>
</mxfile>
